<svg xmlns:inkscape="http://www.inkscape.org/namespaces/inkscape" xmlns:sodipodi="http://sodipodi.sourceforge.net/DTD/sodipodi-0.dtd" xmlns="http://www.w3.org/2000/svg" xmlns:svg="http://www.w3.org/2000/svg" version="1.0" width="500" height="500" viewBox="0 0 375 375" preserveAspectRatio="xMidYMid" id="svg3337" sodipodi:docname="02360.svg" inkscape:version="1.2.2 (b0a8486541, 2022-12-01)" inkscape:export-filename="02360.png" inkscape:export-xdpi="96" inkscape:export-ydpi="96"><defs id="defs3341"/><metadata id="metadata3331">Created by potrace 1.14, written by Peter Selinger 2001-2017</metadata><g transform="matrix(0.05456224,0,0,-0.05456758,-3.6011202,378.56067)" fill="#168FC6" stroke="none" id="g3335"><path d="m 3249,6936 c -2,-2 -41,-6 -87,-10 -45,-3 -92,-8 -105,-10 -12,-3 -47,-8 -77,-11 -208,-22 -573,-122 -810,-222 -201,-86 -462,-229 -610,-336 -88,-64 -163,-121 -183,-139 -11,-9 -41,-34 -67,-55 -59,-47 -423,-412 -471,-471 -19,-24 -46,-58 -62,-75 -52,-61 -215,-303 -284,-423 -146,-255 -288,-617 -339,-864 -3,-14 -10,-45 -15,-70 -9,-39 -18,-86 -45,-243 -2,-15 -6,-51 -9,-80 -2,-28 -7,-81 -11,-117 -4,-36 -7,-164 -8,-285 0,-342 19,-538 80,-809 119,-533 366,-1018 734,-1441 45,-53 364,-370 416,-415 319,-275 703,-493 1103,-626 58,-20 113,-37 121,-39 8,-2 58,-15 110,-29 52,-14 120,-30 150,-36 30,-6 66,-12 80,-15 49,-10 76,-14 165,-25 50,-6 104,-13 120,-16 52,-10 587,-12 675,-3 114,11 179,18 215,24 17,3 41,7 55,9 76,12 161,29 210,41 30,8 66,16 80,19 14,3 41,10 60,16 19,6 44,13 54,15 29,7 148,45 171,55 11,5 49,20 85,33 185,69 424,191 613,314 355,232 752,620 1000,979 174,252 318,545 416,847 41,127 85,293 95,361 4,21 8,48 11,60 7,32 15,77 21,122 2,23 7,52 9,64 2,12 7,57 11,99 3,42 8,94 10,116 4,55 4,479 -1,535 -12,133 -22,222 -37,305 -5,33 -11,69 -13,80 -15,96 -70,308 -116,447 -155,461 -410,884 -744,1228 -136,141 -290,285 -390,366 -86,69 -256,192 -320,231 -156,95 -312,176 -476,246 -155,66 -459,162 -579,182 -19,3 -42,8 -50,10 -8,2 -31,6 -50,9 -19,3 -44,7 -55,10 -24,4 -90,13 -160,22 -27,3 -61,8 -75,11 -28,5 -616,14 -621,9 z m 285,-1062 c 17,-15 93,-86 170,-158 76,-72 150,-142 165,-155 37,-34 236,-219 281,-261 44,-41 250,-234 289,-270 244,-227 299,-278 467,-435 176,-165 296,-277 310,-290 25,-23 270,-252 294,-275 14,-14 80,-74 145,-135 65,-60 155,-144 199,-186 45,-42 93,-87 107,-100 15,-13 46,-42 70,-64 l 44,-40 -426,-5 -425,-5 1,-1023 c 0,-594 -4,-1026 -9,-1029 -7,-5 -1038,-7 -1173,-4 l -23,1 -2,858 -3,857 h -500 c -275,1 -507,-1 -515,-3 -13,-3 -15,-106 -14,-858 0,-601 -3,-854 -10,-855 -16,0 -1136,-1 -1167,0 l -27,1 v 1002 c -1,552 -1,1015 -1,1031 l -1,27 h -342 -343 l 1200,1200 c 660,660 1202,1200 1204,1200 2,0 17,-12 35,-26 z" id="path3333"/></g></svg>